<svg width="25" height="25" viewBox="0 0 25 25" fill="none" xmlns="http://www.w3.org/2000/svg">
<path d="M22.4275 1.58432C21.4123 0.57478 20.0387 0.00810099 18.607 0.00810099C17.1752 0.00810099 15.8017 0.57478 14.7865 1.58432C14.2856 1.08261 13.6908 0.684464 13.036 0.412626C12.3812 0.140788 11.6793 0.00057833 10.9704 1.78773e-06C9.53858 -0.00116259 8.16496 0.566501 7.1517 1.57811C6.13845 2.58972 5.56855 3.96242 5.56738 5.39422C5.56622 6.82602 6.13388 8.19964 7.14549 9.21289L14.7865 16.8373L22.4275 9.21289C22.93 8.71288 23.3287 8.11852 23.6008 7.46394C23.8729 6.80936 24.0129 6.10748 24.0129 5.39861C24.0129 4.68974 23.8729 3.98785 23.6008 3.33328C23.3287 2.6787 22.93 2.08433 22.4275 1.58432ZM20.8173 7.5986C20.7599 7.65646 20.6915 7.70234 20.6162 7.7336C20.5409 7.76486 20.4601 7.78088 20.3786 7.78073C20.2558 7.78062 20.1359 7.74415 20.0339 7.67592C19.9319 7.60768 19.8524 7.51076 19.8055 7.39737C19.7585 7.28399 19.7462 7.15923 19.7701 7.03887C19.794 6.9185 19.8531 6.80792 19.9398 6.72109C20.1144 6.54793 20.253 6.34192 20.3475 6.11494C20.4421 5.88796 20.4908 5.6445 20.4908 5.39861C20.4908 5.15272 20.4421 4.90926 20.3475 4.68228C20.253 4.4553 20.1144 4.24929 19.9398 4.07613C19.8245 3.95918 19.7599 3.80158 19.7599 3.63737C19.7599 3.47317 19.8245 3.31556 19.9398 3.19862C19.9972 3.14055 20.0655 3.09444 20.1408 3.06298C20.2161 3.03151 20.2969 3.01531 20.3786 3.01531C20.4602 3.01531 20.541 3.03151 20.6163 3.06298C20.6916 3.09444 20.76 3.14055 20.8173 3.19862C21.107 3.48706 21.3369 3.8299 21.4938 4.20743C21.6507 4.58497 21.7314 4.98978 21.7314 5.39861C21.7314 5.80744 21.6507 6.21224 21.4938 6.58978C21.3369 6.96732 21.107 7.31015 20.8173 7.5986Z" fill="#002F5B"/>
<path d="M0.622066 12.5696C0.786589 12.569 0.944241 12.5036 1.06082 12.3875L4.26871 9.17961C4.38728 9.06325 4.45475 8.90455 4.45631 8.73843C4.45786 8.57231 4.39336 8.41238 4.27699 8.29382C4.16063 8.17526 4.00193 8.10778 3.83581 8.10623C3.66969 8.10468 3.50976 8.16918 3.3912 8.28554L0.18331 11.51C0.125241 11.5674 0.0791363 11.6357 0.0476697 11.711C0.016203 11.7863 0 11.8671 0 11.9487C0 12.0304 0.016203 12.1112 0.0476697 12.1865C0.0791363 12.2618 0.125241 12.3301 0.18331 12.3875C0.299891 12.5036 0.457544 12.569 0.622066 12.5696Z" fill="#4CB050"/>
<path d="M0.622066 17.1477C0.784839 17.1504 0.942253 17.0895 1.06082 16.978L6.21001 11.8371C6.27101 11.7802 6.31994 11.7117 6.35387 11.6355C6.38781 11.5594 6.40605 11.4772 6.40752 11.3938C6.40899 11.3104 6.39366 11.2276 6.36243 11.1503C6.3312 11.073 6.28473 11.0028 6.22577 10.9438C6.16681 10.8849 6.09658 10.8384 6.01927 10.8072C5.94196 10.7759 5.85915 10.7606 5.77578 10.7621C5.69242 10.7635 5.6102 10.7818 5.53404 10.8157C5.45788 10.8496 5.38933 10.8986 5.33249 10.9596L0.18331 16.0881C0.125241 16.1454 0.0791363 16.2137 0.0476697 16.2891C0.016203 16.3644 0 16.4452 0 16.5268C0 16.6084 0.016203 16.6893 0.0476697 16.7646C0.0791363 16.8399 0.125241 16.9082 0.18331 16.9656C0.299891 17.0817 0.457544 17.1471 0.622066 17.1477Z" fill="#4CB050"/>
<path d="M1.60306 19.2424L0.18331 20.6663C0.125241 20.7237 0.0791363 20.792 0.0476697 20.8673C0.016203 20.9426 0 21.0234 0 21.105C0 21.1867 0.016203 21.2675 0.0476697 21.3428C0.0791363 21.4181 0.125241 21.4864 0.18331 21.5438C0.299725 21.6601 0.457532 21.7254 0.622066 21.7254C0.786601 21.7254 0.944407 21.6601 1.06082 21.5438L2.48471 20.124C2.5496 20.0678 2.60221 19.9989 2.63926 19.9214C2.67632 19.844 2.69703 19.7598 2.7001 19.674C2.70317 19.5882 2.68853 19.5027 2.65711 19.4228C2.62568 19.3429 2.57814 19.2704 2.51743 19.2097C2.45673 19.149 2.38418 19.1014 2.3043 19.07C2.22441 19.0386 2.13891 19.0239 2.05313 19.027C1.96734 19.0301 1.8831 19.0508 1.80567 19.0878C1.72824 19.1249 1.65927 19.1775 1.60306 19.2424Z" fill="#4CB050"/>
<path d="M8.47841 14.1262C8.54327 14.0704 8.59589 14.0017 8.63298 13.9246C8.67006 13.8475 8.6908 13.7635 8.6939 13.678C8.697 13.5925 8.68239 13.5073 8.65099 13.4277C8.61958 13.3481 8.57206 13.2758 8.51142 13.2155C8.45077 13.1551 8.37829 13.1079 8.29855 13.0769C8.2188 13.0459 8.1335 13.0317 8.04801 13.0352C7.96251 13.0387 7.87866 13.0598 7.80172 13.0973C7.72478 13.1347 7.65641 13.1877 7.6009 13.2528L3.39132 17.4582C3.33325 17.5156 3.28714 17.5839 3.25568 17.6592C3.22421 17.7346 3.20801 17.8154 3.20801 17.897C3.20801 17.9786 3.22421 18.0594 3.25568 18.1347C3.28714 18.2101 3.33325 18.2784 3.39132 18.3357C3.50773 18.452 3.66554 18.5173 3.83007 18.5173C3.99461 18.5173 4.15242 18.452 4.26883 18.3357L8.47841 14.1262Z" fill="#4CB050"/>
<path d="M8.04776 18.2573C7.93082 18.142 7.77321 18.0774 7.609 18.0774C7.4448 18.0774 7.28719 18.142 7.17025 18.2573L4.14034 21.3037C4.08227 21.3611 4.03617 21.4294 4.0047 21.5047C3.97323 21.5801 3.95703 21.6609 3.95703 21.7425C3.95703 21.8241 3.97323 21.9049 4.0047 21.9803C4.03617 22.0556 4.08227 22.1239 4.14034 22.1813C4.25676 22.2975 4.41456 22.3628 4.5791 22.3628C4.74363 22.3628 4.90144 22.2975 5.01785 22.1813L8.06432 19.1348C8.17741 19.0157 8.23907 18.8569 8.23597 18.6926C8.23287 18.5284 8.16526 18.372 8.04776 18.2573Z" fill="#4CB050"/>
<path d="M9.28145 17.6484C9.4458 17.647 9.60313 17.5817 9.72021 17.4663L10.7633 16.4108C10.8243 16.354 10.8732 16.2854 10.9072 16.2093C10.9411 16.1331 10.9593 16.0509 10.9608 15.9675C10.9623 15.8842 10.9469 15.8014 10.9157 15.724C10.8845 15.6467 10.838 15.5765 10.7791 15.5175C10.7201 15.4586 10.6499 15.4121 10.5726 15.3809C10.4952 15.3497 10.4124 15.3343 10.3291 15.3358C10.2457 15.3373 10.1635 15.3555 10.0873 15.3894C10.0112 15.4234 9.94262 15.4723 9.88578 15.5333L8.83028 16.5888C8.71501 16.7058 8.65039 16.8634 8.65039 17.0276C8.65039 17.1918 8.71501 17.3494 8.83028 17.4663C8.88976 17.5249 8.96025 17.5712 9.03768 17.6024C9.11511 17.6337 9.19796 17.6493 9.28145 17.6484Z" fill="#4CB050"/>
<path d="M13.0645 17.8059C13.0071 17.7478 12.9388 17.7017 12.8635 17.6702C12.7882 17.6388 12.7074 17.6226 12.6257 17.6226C12.5441 17.6226 12.4633 17.6388 12.388 17.6702C12.3127 17.7017 12.2443 17.7478 12.187 17.8059L7.0378 22.9551C6.97973 23.0124 6.93363 23.0807 6.90216 23.1561C6.8707 23.2314 6.85449 23.3122 6.85449 23.3938C6.85449 23.4754 6.8707 23.5562 6.90216 23.6316C6.93363 23.7069 6.97973 23.7752 7.0378 23.8326C7.15422 23.9488 7.31202 24.0141 7.47656 24.0141C7.64109 24.0141 7.7989 23.9488 7.91532 23.8326L13.0645 18.6958C13.1245 18.6382 13.1722 18.5692 13.2048 18.4927C13.2374 18.4162 13.2542 18.334 13.2542 18.2508C13.2542 18.1677 13.2374 18.0854 13.2048 18.009C13.1722 17.9325 13.1245 17.8634 13.0645 17.8059Z" fill="#4CB050"/>
<path d="M18.8221 15.7612L11.6281 22.9551C11.5129 23.0721 11.4482 23.2297 11.4482 23.3939C11.4482 23.5581 11.5129 23.7157 11.6281 23.8327C11.7453 23.9492 11.9037 24.0146 12.069 24.0146C12.2342 24.0146 12.3927 23.9492 12.5098 23.8327L19.6996 16.6387C19.7577 16.5813 19.8038 16.513 19.8352 16.4377C19.8667 16.3624 19.8829 16.2816 19.8829 16.1999C19.8829 16.1183 19.8667 16.0375 19.8352 15.9622C19.8038 15.8869 19.7577 15.8186 19.6996 15.7612C19.5827 15.6459 19.425 15.5813 19.2608 15.5813C19.0966 15.5813 18.939 15.6459 18.8221 15.7612Z" fill="#4CB050"/>
</svg>
