<svg width="49" height="49" viewBox="0 0 49 49" fill="none" xmlns="http://www.w3.org/2000/svg">
<circle cx="24.5" cy="24.5" r="24.5" fill="#4CB050"/>
<path d="M26.7468 32.6657C22.8391 32.6573 23.064 32.6838 22.9689 32.6462C22.9543 32.6405 22.9129 32.6171 22.8881 32.5948C22.8623 32.5714 22.847 32.5503 22.8303 32.5205C22.7156 32.3114 22.8367 31.2828 22.3508 29.3623H27.4992C26.8146 31.9145 27.2501 32.6657 26.7468 32.6657ZM24.5099 14.4426V16.5689C24.2229 16.4935 22.4362 15.7946 22.0288 17.3907C21.9239 17.8197 22.0079 18.2901 22.2951 18.6559C23.026 19.5872 24.047 19.0454 24.5099 18.9218V21.0925C22.3793 21.1414 21.6346 20.6319 22.394 22.6161C22.8797 23.8842 20.8075 24.0425 21.2692 22.5545C21.3381 22.3316 21.4328 22.0262 21.5239 21.5662C21.5723 21.3214 21.3851 21.0925 21.1348 21.0925H18.7367C18.4375 17.801 20.9865 14.6679 24.5099 14.4426ZM29.4497 19.6212C28.9702 17.7854 25.9579 18.4924 26.7522 20.6595C26.7956 20.778 26.8452 20.9136 26.8934 21.0925H25.3032C25.2556 18.4175 25.4093 18.3368 25.1629 18.128C24.8387 17.8545 23.7128 18.373 23.531 18.4046C22.5394 18.5746 22.547 16.9625 23.5106 17.1101C23.8945 17.1693 24.8404 17.6331 25.1583 17.3729C25.2501 17.2975 25.3032 17.185 25.3032 17.0663V14.4365C28.6604 14.6448 31.3595 17.6156 31.0744 21.0925H29.2453C29.4188 20.4314 29.6002 20.1625 29.4497 19.6212ZM18.8516 21.8858H20.6374C20.4645 22.5441 20.2838 22.8192 20.4331 23.3567C20.9154 25.2087 23.9191 24.4687 23.1306 22.319C23.0872 22.2005 23.0376 22.0649 22.9894 21.8858H24.5099V23.2918C24.5099 23.9231 25.3855 23.6445 26.0098 23.4059C27.3147 22.9073 27.3145 24.7689 26.302 24.6125C25.8143 24.5374 24.5099 23.8641 24.5099 24.6562V28.5624H22.1275C20.9403 24.7499 19.3866 24.4666 18.8516 21.8858ZM27.7362 28.5624H25.3032V25.1536C25.8854 25.3066 26.2491 25.5039 26.7741 25.3579C28.6091 24.88 27.8784 21.8414 25.7374 22.6608C25.619 22.7042 25.4836 22.7536 25.3032 22.802V21.8858H27.3836C28.0262 21.8858 27.7134 20.9471 27.4828 20.3466C27.1956 19.5537 27.9228 19.1778 28.3848 19.4438C29.2453 19.9392 28.0401 21.2519 28.4414 21.7409C28.6502 21.9947 28.7965 21.8386 30.9591 21.8858C30.784 22.7135 30.4438 23.4989 29.9631 24.1792C28.9503 25.6114 28.2048 27.1262 27.7362 28.5624Z" fill="white"/>
</svg>
