<svg width="24" height="27" viewBox="0 0 24 27" fill="none" xmlns="http://www.w3.org/2000/svg">
<path d="M20 27C22.2092 27 24 25.3882 24 23.4V3.6C24 1.61177 22.2092 0 20 0H4C1.79085 0 0 1.61177 0 3.6V17.2877C0.3093 17.1662 0.648525 17.1 0.99997 17.1H5.99995C9.03755 17.1 11.5 19.3162 11.5 22.05V26.1C11.5 26.416 11.4265 26.7214 11.2913 27H20Z" fill="#4CB050"/>
<path d="M6.00006 18.4502C8.20916 18.4502 10.0001 20.062 10.0001 22.0502V26.1002C10.0001 26.4589 9.76331 26.7834 9.39756 26.926C9.03181 27.0686 8.60691 27.0021 8.31611 26.7568L0.316095 20.0068C0.0167404 19.7542 -0.0807894 19.3627 0.0701056 19.0192C0.221006 18.6758 0.589696 18.4502 1.00004 18.4502H6.00006Z" fill="#4CB050"/>
</svg>
