<svg width="7" height="10" viewBox="0 0 7 10" fill="none" xmlns="http://www.w3.org/2000/svg">
<path d="M5.78176 6.09314C5.68839 6.2492 5.59617 6.40106 5.50931 6.5535C5.20602 7.08523 4.90606 7.61451 4.60625 8.14841L4.56933 8.20545C4.51823 8.29622 4.42239 8.30737 4.3183 8.30795L2.45398 8.25424C2.45355 8.25424 2.45297 8.25424 2.45253 8.25424C2.34772 8.25424 2.25131 8.26032 2.20006 8.16897L1.04249 6.15423C0.986902 6.05521 0.930442 5.96372 0.873838 5.86499C0.444022 5.1161 -0.000126683 4.34492 -0.000126683 3.39698C-0.000126683 1.5231 1.52443 0 3.39845 0C5.27247 0 6.79688 1.52484 6.79688 3.39872C6.79688 4.39776 6.25761 5.29836 5.78176 6.09314ZM3.39845 0.581243C1.84378 0.581243 0.578945 1.84594 0.578945 3.40074C0.578945 4.19451 0.9662 4.86956 1.37618 5.58399C1.43351 5.68417 1.49113 5.78435 1.54773 5.88496L2.62177 7.79966L4.1469 7.79243C4.43223 7.28458 4.71757 6.77688 5.00624 6.27106C5.09513 6.11514 5.18937 5.95764 5.28492 5.79796C5.74354 5.03185 6.2178 4.23968 6.2178 3.4006C6.2178 1.84594 4.95311 0.581243 3.39845 0.581243Z" fill="#DDA037"/>
<path d="M2.17321 8.90563C2.17321 8.78576 2.27049 8.68848 2.39036 8.68848H4.12757C4.24759 8.68848 4.34473 8.78576 4.34473 8.90563C4.34473 9.0255 4.24759 9.12278 4.12757 9.12278H2.39036C2.27049 9.12278 2.17321 9.0255 2.17321 8.90563Z" fill="#DDA037"/>
<path d="M3.98304 9.4126C4.10306 9.4126 4.2002 9.50988 4.2002 9.62975C4.2002 9.74962 4.10306 9.8469 3.98304 9.8469H2.53536C2.4155 9.8469 2.31821 9.74962 2.31821 9.62975C2.31821 9.50988 2.4155 9.4126 2.53536 9.4126H3.98304Z" fill="#DDA037"/>
</svg>
