<svg width="23" height="21" viewBox="0 0 23 21" fill="none" xmlns="http://www.w3.org/2000/svg">
<path d="M20.0185 0H2.98148C1.33457 0 0 1.28182 0 2.86364V14.7C0 16.2545 1.33457 17.5636 2.98148 17.5636H6.47407L9.2284 20.6182C9.42716 20.8636 9.71111 21 10.0519 21C10.3926 21 10.6765 20.8636 10.8753 20.6182L13.6296 17.5636H20.0185C21.6654 17.5636 23 16.2818 23 14.7V2.86364C23 1.28182 21.6654 0 20.0185 0ZM12.9765 12.6H4.99753C4.6 12.6 4.28765 12.3 4.28765 11.9182C4.28765 11.5364 4.6 11.2364 4.99753 11.2364H12.9765C13.3741 11.2364 13.6864 11.5364 13.6864 11.9182C13.6864 12.3 13.3741 12.6 12.9765 12.6ZM18.3148 9.49091H4.99753C4.6 9.49091 4.28765 9.19091 4.28765 8.80909C4.28765 8.42727 4.6 8.12727 4.99753 8.12727H18.3148C18.7123 8.12727 19.0247 8.42727 19.0247 8.80909C19.0247 9.19091 18.7123 9.49091 18.3148 9.49091ZM18.3148 6.08182H4.99753C4.6 6.08182 4.28765 5.78182 4.28765 5.4C4.28765 5.01818 4.6 4.71818 4.99753 4.71818H18.3148C18.7123 4.71818 19.0247 5.01818 19.0247 5.4C19.0247 5.78182 18.7123 6.08182 18.3148 6.08182Z" fill="#002F5B"/>
</svg>
