<svg width="42" height="42" viewBox="0 0 42 42" fill="none" xmlns="http://www.w3.org/2000/svg">
<path d="M42 21C42 32.598 32.598 42 21 42C9.40199 42 0 32.598 0 21C0 9.40199 9.40199 0 21 0C32.598 0 42 9.40199 42 21ZM18.5709 32.1193L34.1516 16.5387C34.6807 16.0096 34.6807 15.1518 34.1516 14.6227L32.2356 12.7067C31.7065 12.1775 30.8487 12.1775 30.3195 12.7067L17.6129 25.4132L11.6805 19.4808C11.1514 18.9517 10.2936 18.9517 9.76441 19.4808L7.84841 21.3968C7.31935 21.9259 7.31935 22.7837 7.84841 23.3128L16.6549 32.1192C17.184 32.6484 18.0418 32.6484 18.5709 32.1193V32.1193Z" fill="#4CB050"/>
</svg>
