<svg width="20" height="25" viewBox="0 0 20 25" fill="none" xmlns="http://www.w3.org/2000/svg">
<path d="M2.69553 24.9565C2.02596 24.9565 1.45257 24.7179 0.975353 24.2406C0.498135 23.7634 0.259933 23.1904 0.260744 22.5217V3.04343C0.260744 2.37386 0.499353 1.80047 0.97657 1.32325C1.45379 0.846036 2.02677 0.607833 2.69553 0.608645H11.4303C11.7549 0.608645 12.0646 0.669514 12.3592 0.791253C12.6538 0.912993 12.9123 1.08546 13.1347 1.30864L19.039 7.21299C19.2622 7.43618 19.4347 7.69508 19.5564 7.98969C19.6781 8.2843 19.739 8.59351 19.739 8.91734V22.5217C19.739 23.1912 19.5004 23.7646 19.0232 24.2419C18.546 24.7191 17.973 24.9573 17.3042 24.9565H2.69553ZM11.2173 7.91299C11.2173 8.25792 11.3341 8.54725 11.5679 8.78099C11.8016 9.01473 12.0905 9.13119 12.4347 9.13038H17.3042L11.2173 3.04343V7.91299Z" fill="#002F5B"/>
</svg>
