<svg width="12" height="12" viewBox="0 0 12 12" fill="none" xmlns="http://www.w3.org/2000/svg">
<path fill-rule="evenodd" clip-rule="evenodd" d="M5.6875 0C8.82659 0 11.375 2.5092 11.375 5.6C11.375 8.6908 8.82659 11.2 5.6875 11.2C2.54841 11.2 0 8.6908 0 5.6C0 2.5092 2.54841 0 5.6875 0ZM5.6875 0.800001C2.99691 0.800001 0.8125 2.9508 0.8125 5.6C0.8125 8.2492 2.99691 10.4 5.6875 10.4C8.37809 10.4 10.5625 8.2492 10.5625 5.6C10.5625 2.9508 8.37809 0.800001 5.6875 0.800001ZM5.28125 8.4V4.8C5.28125 4.5792 5.46325 4.4 5.6875 4.4C5.91175 4.4 6.09375 4.5792 6.09375 4.8V8.4C6.09375 8.6208 5.91175 8.8 5.6875 8.8C5.46325 8.8 5.28125 8.6208 5.28125 8.4ZM5.6875 2.3728C5.34747 2.3728 5.07122 2.6448 5.07122 2.9796C5.07122 3.3148 5.34747 3.5868 5.6875 3.5868C6.02753 3.5868 6.30378 3.3148 6.30378 2.9796C6.30378 2.6448 6.02753 2.3728 5.6875 2.3728Z" fill="white" fill-opacity="0.72"/>
</svg>
