<svg width="18" height="24" viewBox="0 0 18 24" fill="none" xmlns="http://www.w3.org/2000/svg">
<path d="M8.98131 14.008C8.17389 14.008 7.3846 13.7637 6.71325 13.3058C6.0419 12.848 5.51864 12.1972 5.20965 11.4359C4.90067 10.6745 4.81982 9.83672 4.97734 9.02846C5.13486 8.22021 5.52367 7.47777 6.09461 6.89505C6.66555 6.31233 7.39296 5.91549 8.18487 5.75472C8.97679 5.59395 9.79762 5.67646 10.5436 5.99183C11.2896 6.3072 11.9271 6.84125 12.3757 7.52646C12.8243 8.21166 13.0637 9.01725 13.0637 9.84134C13.0637 10.9464 12.6336 12.0062 11.868 12.7876C11.1024 13.569 10.064 14.008 8.98131 14.008ZM17.9626 9.88301C17.9626 13.533 13.5291 19.7164 10.8837 23.0747C10.6541 23.3637 10.3641 23.5968 10.035 23.7568C9.70587 23.9169 9.34589 23.9999 8.98131 23.9999C8.61674 23.9999 8.25676 23.9169 7.92764 23.7568C7.59852 23.5968 7.30856 23.3637 7.07891 23.0747C4.4335 19.7164 0 13.533 0 9.88301C0 7.45185 0.946243 5.12026 2.63057 3.40117C4.31489 1.68208 6.59932 0.716309 8.98131 0.716309C11.3633 0.716309 13.6477 1.68208 15.3321 3.40117C17.0164 5.12026 17.9626 7.45185 17.9626 9.88301ZM8.98131 15.6747C10.1117 15.6747 11.2167 15.3326 12.1566 14.6916C13.0965 14.0506 13.8291 13.1396 14.2616 12.0737C14.6942 11.0078 14.8074 9.83487 14.5869 8.70331C14.3663 7.57175 13.822 6.53235 13.0227 5.71654C12.2234 4.90073 11.205 4.34515 10.0963 4.12007C8.98766 3.89499 7.83848 4.01051 6.79413 4.45202C5.74978 4.89354 4.85716 5.64121 4.22915 6.6005C3.60113 7.55979 3.26593 8.68761 3.26593 9.84134C3.26593 11.3884 3.86809 12.8722 4.93993 13.9661C6.01177 15.0601 7.4655 15.6747 8.98131 15.6747Z" fill="white"/>
</svg>
