<svg width="51" height="51" viewBox="0 0 51 51" fill="none" xmlns="http://www.w3.org/2000/svg">
<circle cx="25.5" cy="25.5" r="25.5" fill="#3CAF4B"/>
<path d="M35.0847 30.823C36.4488 32.2462 36.4488 34.5536 35.0847 35.976C33.7211 37.3992 31.5101 37.3992 30.1459 35.976L31.2895 34.7827L33.9414 32.0158L35.0847 30.823ZM32.589 30.6062L29.9387 33.3728L28.7946 34.5651L26.0712 31.7243L26.0336 31.763L19.9776 25.4433L20.0149 25.4049L18.0395 23.342L14.5446 14.5442L22.9775 18.19L24.9534 20.2513L24.9667 20.2372L31.0225 26.5566L31.0092 26.5702L33.7323 29.4131L32.589 30.6062ZM19.5958 22.5796C19.822 22.4812 20.0568 22.3484 20.227 22.1703C20.6768 21.7012 20.5541 20.8148 20.3668 20.6188C20.5541 20.8143 21.4044 20.942 21.8536 20.474C22.0241 20.2964 22.1526 20.0492 22.2464 19.8138C22.4007 19.4287 22.4623 19.0687 22.4623 19.0687L17.6174 16.9738L16.874 17.7495L18.8813 22.8049C18.8813 22.8049 19.2263 22.7401 19.5958 22.5796ZM36.8135 19.5732L31.659 14.1954C31.4107 13.9349 31.0064 13.9349 30.7575 14.1954L25.8021 19.3658L31.8579 25.686L32.9639 24.5313L31.0841 22.57C30.8533 22.3292 30.8533 21.9401 31.0841 21.6983C31.3151 21.4585 31.6884 21.4585 31.9195 21.6983L33.799 23.6599L34.905 22.5063L33.0255 20.5447C32.7952 20.3039 32.7952 19.9135 33.0255 19.6724C33.2565 19.4322 33.6304 19.4322 33.8614 19.6724L35.7404 21.6335L36.8137 20.5151C37.0621 20.2543 37.0621 19.833 36.8135 19.5732ZM14.1869 31.4854C13.9377 31.7454 13.9377 32.1672 14.1869 32.427L19.3413 37.8048C19.5905 38.0651 19.9942 38.0651 20.2434 37.8048L21.3162 36.6859L19.4364 34.7251C19.2056 34.4843 19.2056 34.0934 19.4364 33.8528C19.6671 33.612 20.0407 33.612 20.272 33.8528L22.1511 35.8152L23.2576 34.6595L21.3778 32.6987C21.1475 32.4582 21.1475 32.0681 21.3778 31.8265C21.6085 31.5857 21.9827 31.5857 22.2134 31.8265L24.0932 33.7888L25.1985 32.6344L19.143 26.314L14.1869 31.4854Z" fill="white"/>
</svg>
