<svg width="11" height="14" viewBox="0 0 11 14" fill="none" xmlns="http://www.w3.org/2000/svg">
<path fill-rule="evenodd" clip-rule="evenodd" d="M0.541531 0.999919C0.541531 0.631732 0.858659 0.333252 1.24986 0.333252H9.74988C10.1411 0.333252 10.4582 0.631732 10.4582 0.999919C10.4582 1.36811 10.1411 1.66659 9.74988 1.66659H6.62323C7.14151 2.24277 7.45332 2.94455 7.57105 3.66659H9.74988C10.1411 3.66659 10.4582 3.96507 10.4582 4.33325C10.4582 4.70144 10.1411 4.99992 9.74988 4.99992H7.57105C7.44865 5.75059 7.11651 6.47932 6.56068 7.06785C5.82932 7.84212 4.7477 8.33325 3.37486 8.33325H3.03598L7.75613 12.5145C8.04103 12.7668 8.05463 13.1887 7.78652 13.4569C7.51842 13.7249 7.07011 13.7377 6.78522 13.4854L0.764394 8.15205C0.552921 7.96472 0.484362 7.67492 0.591419 7.42085C0.69847 7.16672 0.959455 6.99992 1.24986 6.99992H3.37486C4.36329 6.99992 5.05257 6.65772 5.50186 6.18199C5.81176 5.85385 6.02433 5.44365 6.13037 4.99992H1.24986C0.858659 4.99992 0.541531 4.70144 0.541531 4.33325C0.541531 3.96507 0.858659 3.66659 1.24986 3.66659H6.13037C6.02433 3.22286 5.81176 2.81265 5.50186 2.48451C5.05257 2.00879 4.36329 1.66659 3.37486 1.66659H1.24986C0.858659 1.66659 0.541531 1.36811 0.541531 0.999919Z" fill="white"/>
</svg>
