<svg width="19" height="19" viewBox="0 0 19 19" fill="none" xmlns="http://www.w3.org/2000/svg">
<path d="M11 16C9.22502 15.9996 7.5012 15.4054 6.103 14.312L1.707 18.708L0.292999 17.294L4.689 12.898C3.595 11.4997 3.00043 9.77544 3 8C3 3.589 6.589 0 11 0C15.411 0 19 3.589 19 8C19 12.411 15.411 16 11 16ZM11 2C7.691 2 5 4.691 5 8C5 11.309 7.691 14 11 14C14.309 14 17 11.309 17 8C17 4.691 14.309 2 11 2Z" fill="#F9F9F9"/>
<path d="M9.58817 6.58609C9.20917 6.96609 9.00017 7.46809 9.00017 8.00009H7.00017C6.99929 7.47451 7.10259 6.95398 7.3041 6.46857C7.5056 5.98316 7.80133 5.54251 8.17417 5.17209C9.68817 3.66009 12.3132 3.66009 13.8262 5.17209L12.4142 6.58809C11.6542 5.83009 10.3442 5.83209 9.58817 6.58609Z" fill="#F9F9F9"/>
</svg>
