<svg width="8" height="8" viewBox="0 0 8 8" fill="none" xmlns="http://www.w3.org/2000/svg">
<path d="M3.52666 0.456805C3.67564 -0.00173531 4.32436 -0.00173541 4.47334 0.456805L5.01083 2.11101C5.07746 2.31608 5.26855 2.45492 5.48417 2.45492H7.22351C7.70564 2.45492 7.90611 3.07188 7.51605 3.35527L6.1089 4.37762C5.93446 4.50436 5.86147 4.72901 5.9281 4.93407L6.46558 6.58828C6.61457 7.04682 6.08975 7.42812 5.69969 7.14473L4.29254 6.12238C4.1181 5.99564 3.8819 5.99564 3.70746 6.12238L2.30031 7.14473C1.91025 7.42812 1.38543 7.04682 1.53442 6.58828L2.0719 4.93407C2.13853 4.72901 2.06554 4.50436 1.8911 4.37762L0.48395 3.35527C0.0938921 3.07188 0.294355 2.45492 0.776493 2.45492H2.51583C2.73145 2.45492 2.92254 2.31608 2.98917 2.11101L3.52666 0.456805Z" fill="white"/>
</svg>
