<svg width="17" height="17" viewBox="0 0 17 17" fill="none" xmlns="http://www.w3.org/2000/svg">
<path d="M8.50473 8.02731C8.52224 8.02731 8.53976 8.02846 8.55727 8.02875C10.7761 8.00058 12.5725 6.24597 12.5725 4.09087C12.5725 1.91794 10.7473 0.150391 8.50354 0.150391C6.25976 0.150391 4.43457 1.91794 4.43457 4.09087C4.43457 6.24625 6.23155 8.00115 8.4507 8.02904C8.4688 8.02904 8.48662 8.0276 8.50502 8.0276L8.50473 8.02731Z" fill="white"/>
<path d="M8.55698 8.60327C8.53887 8.60327 8.52106 8.60586 8.50295 8.60586C8.48484 8.60586 8.46762 8.60356 8.44951 8.60327C4.05576 8.63145 0.471289 12.0242 0.31543 16.2496H16.6839C16.5281 12.0237 12.9469 8.63058 8.55698 8.60327Z" fill="white"/>
</svg>
