<svg width="25" height="25" viewBox="0 0 25 25" fill="none" xmlns="http://www.w3.org/2000/svg">
<path d="M6.84376 2.18075H11.281C11.6025 1.40561 11.0145 -0.0715914 12.5829 0.0122267C13.9026 0.083866 13.4796 1.29672 13.6668 2.16141H18.1491C18.1741 1.76954 18.1962 1.39057 18.2205 1.01518C18.2684 0.31741 18.7243 -0.102396 19.3309 0.0301365C19.7317 0.117537 20.3512 0.679189 20.3262 0.98294C20.2355 2.10768 20.8221 2.43579 21.7153 2.83482C23.8524 3.79908 24.9171 5.60583 24.9528 7.92479C25.01 11.6902 25.0243 15.4577 24.9528 19.2216C24.8907 22.575 22.5599 24.9055 19.2094 24.9527C14.746 25.0163 10.2816 25.0163 5.81626 24.9527C2.41653 24.9112 0.0850139 22.5543 0.0357113 19.15C-0.0178785 15.4562 -0.00430245 11.7604 0.0357113 8.06592C0.0592908 5.38589 1.40189 3.48888 3.9299 2.55399C4.4901 2.34695 4.63657 2.07401 4.60085 1.55104C4.54083 0.727187 4.70874 -0.0171455 5.72123 4.79882e-05C6.66084 0.016525 6.82375 0.722889 6.78803 1.51164C6.78302 1.71509 6.82161 1.9207 6.84376 2.18075ZM4.49438 4.72824C3.04531 5.41885 2.30935 6.44759 2.2972 7.88038C2.26529 11.7145 2.26529 15.5489 2.2972 19.3835C2.31649 21.1931 3.74555 22.6639 5.54188 22.6789C10.1801 22.7238 14.8189 22.7238 19.4581 22.6789C21.2115 22.6617 22.6613 21.2304 22.6856 19.4795C22.7399 15.5744 22.7285 11.6708 22.6892 7.7636C22.6742 6.31506 21.7796 5.22972 20.4677 4.87152C20.3391 5.65956 20.5742 6.74847 19.2852 6.71839C17.8404 6.68471 18.3484 5.4081 18.1062 4.60359H13.6932C13.4789 5.47114 13.9126 6.6711 12.5436 6.71409C11.0073 6.7628 11.5904 5.36369 11.2574 4.57995H6.8852C6.65584 5.43031 7.14529 6.69474 5.69479 6.72268C4.40649 6.74704 4.6623 5.6438 4.49438 4.72824Z" fill="#002F5B"/>
<path d="M13.8276 12.1429C13.8276 13.2368 13.8333 14.3308 13.8276 15.4247C13.8219 16.2557 13.1995 16.8425 12.3985 16.7923C12.1095 16.7702 11.8359 16.6528 11.6204 16.4584C11.405 16.264 11.2597 16.0036 11.2074 15.7177C11.1863 15.6014 11.1763 15.4834 11.1774 15.3652C11.1774 13.2161 11.1774 11.0669 11.1774 8.9177C11.1774 8.26148 11.5096 7.75571 12.0563 7.56658C12.948 7.25782 13.8219 7.89111 13.8304 8.86325C13.839 9.77236 13.8304 10.6815 13.8304 11.5906L13.8276 12.1429Z" fill="#002F5B"/>
<path d="M12.5043 20.7912C12.1543 20.7922 11.8181 20.6548 11.5685 20.4088C11.3189 20.1629 11.1761 19.8282 11.171 19.4773C11.1661 19.3001 11.1966 19.1238 11.2607 18.9586C11.3247 18.7934 11.4211 18.6427 11.544 18.5154C11.667 18.388 11.8141 18.2866 11.9767 18.217C12.1393 18.1475 12.3141 18.1112 12.4909 18.1104C12.6677 18.1095 12.8429 18.1441 13.0061 18.212C13.1694 18.28 13.3175 18.38 13.4417 18.5061C13.5659 18.6323 13.6637 18.782 13.7293 18.9466C13.795 19.1112 13.8272 19.2872 13.824 19.4644C13.8223 19.8152 13.6829 20.1511 13.4358 20.3995C13.1888 20.6478 12.8541 20.7885 12.5043 20.7912Z" fill="#002F5B"/>
</svg>
