<svg width="44" height="42" viewBox="0 0 44 42" fill="none" xmlns="http://www.w3.org/2000/svg">
<ellipse cx="22" cy="21" rx="22" ry="21" fill="#ECF3FF"/>
<path d="M21.9769 7.5C20.9512 7.5 20.1198 8.33149 20.1198 9.35714V18.6428H10.8341C9.80842 18.6428 8.97693 19.4743 8.97693 20.5C8.97693 21.5257 9.80842 22.3572 10.8341 22.3572H20.1198V31.6429C20.1198 32.6685 20.9512 33.5 21.9769 33.5C23.0026 33.5 23.8341 32.6685 23.8341 31.6429V22.3572H33.1198C34.1454 22.3572 34.9769 21.5257 34.9769 20.5C34.9769 19.4743 34.1454 18.6428 33.1198 18.6428H23.8341V9.35714C23.8341 8.33149 23.0026 7.5 21.9769 7.5Z" fill="#002F5B"/>
</svg>
