<svg width="28" height="27" viewBox="0 0 28 27" fill="none" xmlns="http://www.w3.org/2000/svg">
<path fill-rule="evenodd" clip-rule="evenodd" d="M13.721 14.1454L16.0673 16.5634L18.7671 13.873V13.8833L20.693 11.9639V11.954L21.3197 11.3292L28 4.67228L26.8565 3.45253L25.713 2.23277L19.0327 8.86907L13.721 14.1454ZM15.3623 17.3255L13.024 14.9157L11.7706 18.6064L15.3214 17.366L15.3623 17.3255ZM15.2965 5.799V8.13515H5.39642V5.799H15.2965ZM17.2224 3.80398H3.47056V10.1302H15.0378L17.2224 7.96314V3.80398ZM18.1151 1.99502C18.5665 2.03637 18.7671 2.38783 18.7671 2.72894V6.42211C18.9164 6.2745 19.0668 6.12648 19.2185 5.97969L20.693 4.50606V2.49119C20.693 2.46018 20.6629 2.31547 20.6528 2.23277C20.5726 1.77795 20.392 1.30245 20.0109 0.878637C19.6197 0.423813 19.1483 0.196401 18.747 0.0826953C18.5464 0.0310107 18.3659 0.0206738 18.1653 0H2.51766C2.42739 0.0103369 2.32708 0.0103369 2.25687 0.0206738C2.12647 0.0413476 1.99607 0.0723583 1.87571 0.103369C1.78543 0.13438 1.68513 0.175727 1.61491 0.196401C1.52464 0.227412 1.43436 0.289433 1.34409 0.330781C0.651984 0.682236 0.170519 1.49885 0.0601831 2.07772C0.0401221 2.2121 0.020061 2.35681 0 2.49119V24.5088C0 24.5295 0.0300916 24.7879 0.0601831 24.9223C0.0902747 25.0567 0.140427 25.1807 0.180549 25.3151C0.210641 25.3771 0.250763 25.4598 0.270824 25.5218C0.591801 26.2661 1.47449 26.8449 2.07632 26.938C2.21675 26.9587 2.35717 26.9897 2.4976 27H18.1853C18.2154 27 18.4461 26.969 18.5665 26.9483C18.6869 26.9276 18.8674 26.876 18.9978 26.8243C19.3288 26.6899 19.6799 26.4935 20.0109 26.1214C20.3419 25.7492 20.5224 25.3254 20.6127 24.9636C20.6428 24.8086 20.6729 24.6535 20.693 24.4985V14.6825L18.7671 16.6106V24.2607C18.7771 24.6742 18.4261 25.005 18.1352 25.005H2.54775C2.10641 24.943 1.92586 24.5915 1.92586 24.2711V2.73928C1.93589 2.6876 1.93589 2.61524 1.93589 2.57389C1.97601 2.24311 2.32708 1.97435 2.56781 1.99502H18.1151ZM17.2072 21.2527H3.48541V23.2374H17.2072V21.2527ZM10.3463 17.0766H3.48541V19.0613H10.3463V17.0766ZM10.3463 12.5283H3.48541V14.513H10.3463V12.5283Z" fill="#002F5B"/>
</svg>
