<svg width="13" height="16" viewBox="0 0 13 16" fill="none" xmlns="http://www.w3.org/2000/svg">
<g clip-path="url(#clip0_83_1715)">
<path fill-rule="evenodd" clip-rule="evenodd" d="M6.5 0.800049C9.63909 0.800049 12.1875 3.30925 12.1875 6.40005C12.1875 9.49085 9.63909 12 6.5 12C3.36091 12 0.8125 9.49085 0.8125 6.40005C0.8125 3.30925 3.36091 0.800049 6.5 0.800049ZM6.5 1.60005C3.80941 1.60005 1.625 3.75085 1.625 6.40005C1.625 9.04925 3.80941 11.2 6.5 11.2C9.19059 11.2 11.375 9.04925 11.375 6.40005C11.375 3.75085 9.19059 1.60005 6.5 1.60005ZM6.09375 9.20005V5.60005C6.09375 5.37925 6.27575 5.20005 6.5 5.20005C6.72425 5.20005 6.90625 5.37925 6.90625 5.60005V9.20005C6.90625 9.42085 6.72425 9.60005 6.5 9.60005C6.27575 9.60005 6.09375 9.42085 6.09375 9.20005ZM6.5 3.17285C6.15997 3.17285 5.88372 3.44485 5.88372 3.77965C5.88372 4.11485 6.15997 4.38685 6.5 4.38685C6.84003 4.38685 7.11628 4.11485 7.11628 3.77965C7.11628 3.44485 6.84003 3.17285 6.5 3.17285Z" fill="black" fill-opacity="0.72"/>
</g>
<defs>
<clipPath id="clip0_83_1715">
<rect width="13" height="16" fill="white" transform="matrix(-1 0 0 1 13 0)"/>
</clipPath>
</defs>
</svg>
