<svg width="71" height="71" viewBox="0 0 71 71" fill="none" xmlns="http://www.w3.org/2000/svg">
<path d="M41.6534 48.3428C43.5865 48.3428 45.1536 46.7757 45.1536 44.8426C45.1536 42.9094 43.5865 41.3423 41.6534 41.3423C39.7202 41.3423 38.1531 42.9094 38.1531 44.8426C38.1531 46.7757 39.7202 48.3428 41.6534 48.3428Z" fill="#002F5B"/>
<path d="M28.4302 28.119C30.3634 28.119 31.9305 26.5518 31.9305 24.6187C31.9305 22.6855 30.3634 21.1184 28.4302 21.1184C26.4971 21.1184 24.9299 22.6855 24.9299 24.6187C24.9299 26.5518 26.4971 28.119 28.4302 28.119Z" fill="#002F5B"/>
<path d="M68.7999 32.0859C67.0887 30.3747 66.4664 27.2633 67.3998 25.0076C68.3332 22.8296 67.2443 20.2627 65.0663 19.3293C62.8884 18.3959 61.0993 15.7513 61.0993 13.34C61.0993 10.9287 59.1547 8.98405 56.8212 8.98405C54.4099 8.98405 51.7653 7.19502 50.8318 5.01707C49.8984 2.83912 47.4093 1.75014 45.1536 2.68355C42.9757 3.61696 39.7865 2.99468 38.0753 1.28344C36.364 -0.427812 33.6416 -0.427812 32.0081 1.28344C30.2969 2.99468 27.1855 3.61696 24.9298 2.68355C22.7518 1.75014 20.1849 2.83912 19.2515 5.01707C18.3181 7.19502 15.6735 8.98405 13.2622 8.98405C10.8509 8.98405 8.98405 10.9287 8.98405 13.34C8.98405 15.7513 7.19502 18.3959 5.01707 19.3293C2.83912 20.2627 1.75014 22.7518 2.68355 25.0076C3.61696 27.1855 2.99468 30.3747 1.28344 32.0859C-0.427812 33.7971 -0.427812 36.5196 1.28344 38.1531C2.99468 39.8643 3.61696 42.9757 2.68355 45.2314C1.75014 47.4094 2.83912 49.9762 5.01707 50.9096C7.19502 51.843 8.98405 54.4877 8.98405 56.899C8.98405 59.3103 10.9287 61.1771 13.2622 61.1771C15.6735 61.1771 18.3181 62.9661 19.2515 65.1441C20.1849 67.3221 22.674 68.411 24.9298 67.4776C27.1077 66.5442 30.2969 67.1665 32.0081 68.8777C33.7194 70.589 36.4418 70.589 38.0753 68.8777C39.7865 67.1665 42.8979 66.5442 45.1536 67.4776C47.3316 68.411 49.8984 67.3221 50.8318 65.1441C51.7653 62.9661 54.4099 61.1771 56.8212 61.1771C59.2325 61.1771 61.0993 59.2325 61.0993 56.899C61.0993 54.5655 62.8884 51.843 65.0663 50.9096C67.2443 49.9762 68.3332 47.4871 67.3998 45.2314C66.4664 43.0534 67.0887 39.8643 68.7999 38.1531C70.4334 36.5196 70.4334 33.7194 68.7999 32.0859ZM21.8184 24.6186C21.8184 20.9628 24.7742 18.007 28.4301 18.007C32.0859 18.007 35.0417 20.9628 35.0417 24.6186C35.0417 28.2745 32.0859 31.2303 28.4301 31.2303C24.7742 31.2303 21.8184 28.2745 21.8184 24.6186ZM26.5632 48.4983C26.2521 48.8872 25.7854 49.1206 25.3187 49.1206C25.0076 49.1206 24.6964 49.0428 24.3853 48.8095C23.6852 48.265 23.6074 47.3316 24.0742 46.6315L44.2202 20.1849C44.7647 19.4849 45.6981 19.4071 46.3982 19.8738C47.0982 20.4183 47.176 21.3517 46.7093 22.0518L26.5632 48.4983ZM41.6533 51.4541C37.9975 51.4541 35.0417 48.4983 35.0417 44.8425C35.0417 41.1866 37.9975 38.2308 41.6533 38.2308C45.3092 38.2308 48.265 41.1866 48.265 44.8425C48.265 48.4983 45.3092 51.4541 41.6533 51.4541Z" fill="#002F5B"/>
</svg>
