<svg width="9" height="13" viewBox="0 0 9 13" fill="none" xmlns="http://www.w3.org/2000/svg">
<path fill-rule="evenodd" clip-rule="evenodd" d="M0.125024 0.799951C0.125024 0.468583 0.404843 0.199951 0.750024 0.199951H8.25004C8.59522 0.199951 8.87504 0.468583 8.87504 0.799951C8.87504 1.13132 8.59522 1.39995 8.25004 1.39995H5.49122C5.94854 1.91852 6.22366 2.55012 6.32754 3.19995H8.25004C8.59522 3.19995 8.87504 3.46858 8.87504 3.79995C8.87504 4.13132 8.59522 4.39995 8.25004 4.39995H6.32754C6.21954 5.07555 5.92647 5.73141 5.43604 6.26109C4.79072 6.95793 3.83635 7.39995 2.62502 7.39995H2.32601L6.49085 11.163C6.74222 11.3901 6.75422 11.7699 6.51766 12.0112C6.2811 12.2525 5.88554 12.264 5.63416 12.0369L0.321668 7.23687C0.135074 7.06827 0.0745803 6.80745 0.169043 6.57879C0.263499 6.35007 0.49378 6.19995 0.750024 6.19995H2.62502C3.49716 6.19995 4.10535 5.89197 4.50179 5.46381C4.77522 5.16849 4.96279 4.79931 5.05635 4.39995H0.750024C0.404843 4.39995 0.125024 4.13132 0.125024 3.79995C0.125024 3.46858 0.404843 3.19995 0.750024 3.19995H5.05635C4.96279 2.8006 4.77522 2.43141 4.50179 2.13608C4.10535 1.70794 3.49716 1.39995 2.62502 1.39995H0.750024C0.404843 1.39995 0.125024 1.13132 0.125024 0.799951Z" fill="#5B5C5B"/>
</svg>
