<svg width="30" height="30" viewBox="0 0 30 30" fill="none" xmlns="http://www.w3.org/2000/svg">
<path d="M12.5 22.5C14.7187 22.4995 16.8735 21.7568 18.6213 20.39L24.1163 25.885L25.8838 24.1175L20.3888 18.6225C21.7563 16.8746 22.4995 14.7193 22.5 12.5C22.5 6.98625 18.0138 2.5 12.5 2.5C6.98625 2.5 2.5 6.98625 2.5 12.5C2.5 18.0137 6.98625 22.5 12.5 22.5ZM12.5 5C16.6363 5 20 8.36375 20 12.5C20 16.6362 16.6363 20 12.5 20C8.36375 20 5 16.6362 5 12.5C5 8.36375 8.36375 5 12.5 5Z" fill="#002F5B"/>
<path d="M14.2648 10.7326C14.7385 11.2076 14.9998 11.8351 14.9998 12.5001H17.4998C17.5009 11.8431 17.3718 11.1925 17.1199 10.5857C16.868 9.97895 16.4983 9.42814 16.0323 8.96511C14.1398 7.07511 10.8585 7.07511 8.96729 8.96511L10.7323 10.7351C11.6823 9.78761 13.3198 9.79011 14.2648 10.7326Z" fill="#002F5B"/>
</svg>
