<svg width="10" height="10" viewBox="0 0 10 10" fill="none" xmlns="http://www.w3.org/2000/svg">
<path d="M5.04488 5.58588C5.05611 5.58588 5.06734 5.58664 5.07857 5.58683C6.50112 5.56817 7.65282 4.40623 7.65282 2.97909C7.65282 1.54013 6.48265 0.369629 5.04412 0.369629C3.60559 0.369629 2.43542 1.54013 2.43542 2.97909C2.43542 4.40642 3.58751 5.56855 5.01024 5.58702C5.02185 5.58702 5.03327 5.58607 5.04507 5.58607L5.04488 5.58588Z" fill="#252525"/>
<path d="M5.07455 5.58704C5.06493 5.58704 5.05547 5.58851 5.04585 5.58851C5.03623 5.58851 5.02708 5.5872 5.01746 5.58704C2.68331 5.60306 0.779088 7.53225 0.696289 9.93486H9.39194C9.30914 7.53192 7.40665 5.60257 5.07455 5.58704Z" fill="#252525"/>
</svg>
