<svg width="31" height="29" viewBox="0 0 31 29" fill="none" xmlns="http://www.w3.org/2000/svg">
<path d="M26.9815 0H4.01852C1.79877 0 0 1.77013 0 3.95455V20.3C0 22.4468 1.79877 24.2545 4.01852 24.2545H8.72593L12.4383 28.4727C12.7062 28.8117 13.0889 29 13.5481 29C14.0074 29 14.3901 28.8117 14.658 28.4727L18.3704 24.2545H26.9815C29.2012 24.2545 31 22.4844 31 20.3V3.95455C31 1.77013 29.2012 0 26.9815 0ZM17.4901 17.4H6.7358C6.2 17.4 5.77901 16.9857 5.77901 16.4584C5.77901 15.9312 6.2 15.5169 6.7358 15.5169H17.4901C18.0259 15.5169 18.4469 15.9312 18.4469 16.4584C18.4469 16.9857 18.0259 17.4 17.4901 17.4ZM24.6852 13.1065H6.7358C6.2 13.1065 5.77901 12.6922 5.77901 12.1649C5.77901 11.6377 6.2 11.2234 6.7358 11.2234H24.6852C25.221 11.2234 25.642 11.6377 25.642 12.1649C25.642 12.6922 25.221 13.1065 24.6852 13.1065ZM24.6852 8.3987H6.7358C6.2 8.3987 5.77901 7.98441 5.77901 7.45714C5.77901 6.92987 6.2 6.51558 6.7358 6.51558H24.6852C25.221 6.51558 25.642 6.92987 25.642 7.45714C25.642 7.98441 25.221 8.3987 24.6852 8.3987Z" fill="#002F5B"/>
</svg>
