<svg width="24" height="24" viewBox="0 0 24 24" fill="none" xmlns="http://www.w3.org/2000/svg">
<path d="M11.0769 0.923077C11.0769 0.415385 10.6615 0 10.1538 0H0.923077C0.415385 0 0 0.415385 0 0.923077V10.1538C0 10.6615 0.415385 11.0769 0.923077 11.0769H10.1538C10.6615 11.0769 11.0769 10.6615 11.0769 10.1538V0.923077Z" fill="#002F5B"/>
<path d="M24 0.923077C24 0.415385 23.5846 0 23.0769 0H13.8462C13.3385 0 12.9231 0.415385 12.9231 0.923077V10.1538C12.9231 10.6615 13.3385 11.0769 13.8462 11.0769H23.0769C23.5846 11.0769 24 10.6615 24 10.1538V0.923077Z" fill="#002F5B"/>
<path d="M13.8462 23.9998H23.0769C23.5846 23.9998 24 23.5844 24 23.0767V13.8459C24 13.3382 23.5846 12.9229 23.0769 12.9229H13.8462C13.3385 12.9229 12.9231 13.3382 12.9231 13.8459V23.0767C12.9231 23.5844 13.3385 23.9998 13.8462 23.9998Z" fill="#002F5B"/>
<path d="M10.1538 12.9229H0.923077C0.415385 12.9229 0 13.3382 0 13.8459V23.0767C0 23.5844 0.415385 23.9998 0.923077 23.9998H10.1538C10.6615 23.9998 11.0769 23.5844 11.0769 23.0767V13.8459C11.0769 13.3382 10.6615 12.9229 10.1538 12.9229Z" fill="#002F5B"/>
</svg>
