<svg width="26" height="24" viewBox="0 0 26 24" fill="none" xmlns="http://www.w3.org/2000/svg">
<path d="M19.2039 13.0056H23.4538C22.8242 9.00762 19.781 5.65934 15.6885 4.45996V8.75775C17.4724 9.60731 18.7841 11.1565 19.2039 13.0056Z" fill="#4CB050"/>
<path d="M9.44505 8.75775V4.45996C5.35249 5.60937 2.30931 9.00762 1.67969 13.0056H5.92965C6.40187 11.1565 7.71359 9.60731 9.44505 8.75775Z" fill="#4CB050"/>
<path d="M13.0639 0.262365C12.9065 -0.0874549 12.2769 -0.0874549 12.1195 0.262365L11.2275 2.01146H13.9559L13.0639 0.262365Z" fill="#4CB050"/>
<path d="M14.6907 3.51C14.6907 3.21015 14.4283 3.01025 14.166 3.01025H11.0179C10.7555 3.01025 10.4932 3.21015 10.4932 3.51V13.0051H14.6907V3.51Z" fill="#4CB050"/>
<path d="M10.4932 23.5002C10.4932 23.8 10.7555 23.9999 11.0179 23.9999H14.166C14.4283 23.9999 14.6907 23.8 14.6907 23.5002V21.0015H10.4932V23.5002Z" fill="#4CB050"/>
<path d="M0 14.0054V20.0023H2.62343V16.5041H3.67281V20.0023H4.72218V17.9034H5.77155V20.0023H7.34561V16.5041H8.39499V20.0023H9.96905V17.9034H11.0184V20.0023H12.0678V16.5041H13.1172V20.0023H14.1665V17.9034H15.2159V20.0023H16.79V16.5041H17.8393V20.0023H19.4134V17.9034H20.4628V20.0023H21.5122V16.5041H22.5615V20.0023H25.185V14.0054H0Z" fill="#4CB050"/>
</svg>
