<svg width="24" height="24" viewBox="0 0 24 24" fill="none" xmlns="http://www.w3.org/2000/svg">
<path d="M11.3682 11.3682H5.68408C2.55633 11.3682 0 8.81183 0 5.68408C0 2.55633 2.55633 0 5.68408 0C8.81183 0 11.3682 2.55633 11.3682 5.68408V11.3682Z" fill="#4CB050"/>
<path d="M5.68408 24.0005C2.55633 24.0005 0 21.4442 0 18.3164C0 15.1887 2.55633 12.6323 5.68408 12.6323H11.3682V18.3164C11.3682 21.4442 8.81183 24.0005 5.68408 24.0005Z" fill="#4CB050"/>
<path d="M18.3159 11.3682H12.6318V5.68408C12.6318 2.55633 15.1882 0 18.3159 0C21.4437 0 24 2.55633 24 5.68408C24 8.81183 21.4437 11.3682 18.3159 11.3682Z" fill="#4CB050"/>
<path d="M18.3159 24.0005C15.1882 24.0005 12.6318 21.4442 12.6318 18.3164V12.6323H18.3159C21.4437 12.6323 24 15.1887 24 18.3164C24 21.4442 21.4437 24.0005 18.3159 24.0005Z" fill="#4CB050"/>
</svg>
