<svg width="23" height="24" viewBox="0 0 23 24" fill="none" xmlns="http://www.w3.org/2000/svg">
<path fill-rule="evenodd" clip-rule="evenodd" d="M2.84608 20.2846C2.57071 20.1317 2.25387 20.0445 1.91654 20.0445C0.858071 20.0445 0 20.9026 0 21.961V8.86684C0 7.80837 0.858071 6.9503 1.91654 6.9503C2.25387 6.9503 2.57071 7.0375 2.84608 7.19043V20.2846ZM17.2026 9.36109V23.8776H2.49775C1.23238 23.8776 0.581209 23.1432 0.581209 21.961C0.581209 21.2234 1.17891 20.6257 1.91654 20.6257C2.14368 20.6257 2.36507 20.6824 2.56372 20.7929L3.42729 21.2726V9.36109H12.6444L12.1629 12.8518L10.3206 11.8426C10.0865 11.7142 9.82459 11.7142 9.59045 11.8426L4.27136 14.7569C4.15342 14.8216 4.0962 14.9535 4.12944 15.0837C4.16267 15.2139 4.27636 15.3021 4.41079 15.3021H5.82109V19.7766H6.89955V17.0745H6.59995C6.43953 17.0745 6.30935 16.9443 6.30935 16.7839C6.30935 16.6235 6.43953 16.4933 6.59995 16.4933H9.26212C9.42254 16.4933 9.55272 16.6235 9.55272 16.7839C9.55272 16.9443 9.42254 17.0745 9.26212 17.0745H8.96252V19.7766H14.0897V15.3021H15.5C15.6344 15.3021 15.7481 15.2139 15.7814 15.0837C15.8148 14.9535 15.7574 14.8216 15.6394 14.7569L12.4508 13.0098L15.8736 10.3496L16.4443 9.36109H17.2026ZM15.4305 20.6579C15.4305 20.493 15.2956 20.3578 15.1304 20.3578H4.78061C4.61569 20.3578 4.48051 20.4928 4.48051 20.6579V21.1924C4.48051 21.3573 4.61544 21.4925 4.78061 21.4925H15.1307C15.2956 21.4925 15.4308 21.3576 15.4308 21.1924L15.4305 20.6579ZM9.95552 14.4998C10.3691 14.4998 10.7064 14.1624 10.7064 13.7489C10.7064 13.3354 10.3691 12.998 9.95552 12.998C9.54198 12.998 9.20465 13.3354 9.20465 13.7489C9.20465 14.1624 9.54198 14.4998 9.95552 14.4998ZM10.4168 15.3021V16.462H11.4235V15.3021H10.4168ZM12.0047 16.462H13.0115V15.3021H12.0047V16.462ZM13.2739 9.05175L13.1064 10.2661L14.2124 10.9046L15.1804 10.1522L13.2739 9.05175ZM15.5722 9.70917L19.1689 3.47928L18.3641 3.01476L14.7674 9.2444L15.572 9.70892L15.5722 9.70917ZM17.8631 2.72541L14.2664 8.95529L13.4615 8.49078L17.0582 2.26114L17.8628 2.72566L17.8631 2.72541ZM13.0207 10.8863L12.8748 11.9441L13.7179 11.2889L13.0207 10.8863ZM19.459 2.97728L19.6702 2.61147L17.5595 1.39283L17.3483 1.75864L19.459 2.97728ZM17.8496 0.890577L17.9298 0.751897C18.2649 0.171437 19.014 -0.0292129 19.5945 0.30587C20.1749 0.640952 20.3756 1.39008 20.0405 1.97054L19.9603 2.10922L17.8496 0.890577ZM23 23.8773V3.65245H19.8033V4.42631H20.4213C20.5817 4.42631 20.7119 4.55649 20.7119 4.71691C20.7119 4.87733 20.5817 5.00752 20.4213 5.00752H19.8033V5.49078H20.4213C20.5817 5.49078 20.7119 5.62096 20.7119 5.78138C20.7119 5.9418 20.5817 6.07199 20.4213 6.07199H19.8033V6.55524H20.4213C20.5817 6.55524 20.7119 6.68543 20.7119 6.84585C20.7119 7.00627 20.5817 7.13645 20.4213 7.13645H19.8033V7.61971H20.4213C20.5817 7.61971 20.7119 7.7499 20.7119 7.91032C20.7119 8.07074 20.5817 8.20092 20.4213 8.20092H19.8033V8.68418H21.1032C21.2636 8.68418 21.3938 8.81437 21.3938 8.97479C21.3938 9.13521 21.2636 9.26539 21.1032 9.26539H19.8033V9.74865H20.4213C20.5817 9.74865 20.7119 9.87883 20.7119 10.0393C20.7119 10.1997 20.5817 10.3299 20.4213 10.3299H19.8033V10.8131H20.4213C20.5817 10.8131 20.7119 10.9433 20.7119 11.1037C20.7119 11.2641 20.5817 11.3943 20.4213 11.3943H19.8033V11.8776H20.4213C20.5817 11.8776 20.7119 12.0078 20.7119 12.1682C20.7119 12.3286 20.5817 12.4588 20.4213 12.4588H19.8033V12.9421H20.4213C20.5817 12.9421 20.7119 13.0722 20.7119 13.2327C20.7119 13.3931 20.5817 13.5233 20.4213 13.5233H19.8033V14.0065H21.1032C21.2636 14.0065 21.3938 14.1367 21.3938 14.2971C21.3938 14.4575 21.2636 14.5877 21.1032 14.5877H19.8033V15.071H20.4213C20.5817 15.071 20.7119 15.2012 20.7119 15.3616C20.7119 15.522 20.5817 15.6522 20.4213 15.6522H19.8033V16.1355H20.4213C20.5817 16.1355 20.7119 16.2656 20.7119 16.4261C20.7119 16.5865 20.5817 16.7167 20.4213 16.7167H19.8033V17.1999H20.4213C20.5817 17.1999 20.7119 17.3301 20.7119 17.4905C20.7119 17.6509 20.5817 17.7811 20.4213 17.7811H19.8033V18.2644H20.4213C20.5817 18.2644 20.7119 18.3946 20.7119 18.555C20.7119 18.7154 20.5817 18.8456 20.4213 18.8456H19.8033V19.3289H21.1032C21.2636 19.3289 21.3938 19.459 21.3938 19.6195C21.3938 19.7799 21.2636 19.9101 21.1032 19.9101H19.8033V20.3933H20.4213C20.5817 20.3933 20.7119 20.5235 20.7119 20.6839C20.7119 20.8443 20.5817 20.9745 20.4213 20.9745H19.8033V21.4578H20.4213C20.5817 21.4578 20.7119 21.588 20.7119 21.7484C20.7119 21.9088 20.5817 22.039 20.4213 22.039H19.8033V22.5223H20.4213C20.5817 22.5223 20.7119 22.6524 20.7119 22.8129C20.7119 22.9733 20.5817 23.1035 20.4213 23.1035H19.8033V23.8773H23Z" fill="#4CB050"/>
</svg>
